<svg width="16" height="16" viewBox="0 0 16 16" fill="none" xmlns="http://www.w3.org/2000/svg">
<g clip-path="url(#clip0_80_1352)">
<path d="M12.0738 10.4928L11.9375 12.3749C11.9375 12.3749 11.9375 14.6666 8 14.6666C4.0625 14.6666 4.0625 12.3749 4.0625 12.3749L3.92621 10.4928C2.24522 10.3835 0.916668 9.02938 0.916668 7.37492C0.916668 5.64903 2.36242 4.24992 4.14583 4.24992C5.27092 4.24992 6.26162 4.80674 6.83972 5.65115C6.42485 4.67758 5.64752 3.92415 4.69627 3.59604C5.20913 2.27207 6.49493 1.33325 8 1.33325C9.74962 1.33325 11.2029 2.60194 11.4901 4.26956C11.6096 4.25658 11.7311 4.24992 11.8542 4.24992C13.6376 4.24992 15.0833 5.64903 15.0833 7.37492C15.0833 9.02938 13.7548 10.3835 12.0738 10.4928Z" fill="black"/>
</g>
<defs>
<clipPath id="clip0_80_1352">
<rect width="16" height="16" fill="white"/>
</clipPath>
</defs>
</svg>
